<mxfile host="65bd71144e">
    <diagram id="X6lluuHPHzlUMDuKsjDB" name="Page-1">
        <mxGraphModel dx="370" dy="419" grid="1" gridSize="10" guides="1" tooltips="1" connect="1" arrows="1" fold="1" page="1" pageScale="1" pageWidth="850" pageHeight="1100" math="0" shadow="0">
            <root>
                <mxCell id="0"/>
                <mxCell id="1" parent="0"/>
                <mxCell id="17" value="&lt;b&gt;Menu&lt;/b&gt;" style="swimlane;fontStyle=0;align=center;verticalAlign=top;childLayout=stackLayout;horizontal=1;startSize=23;horizontalStack=0;resizeParent=1;resizeParentMax=0;resizeLast=0;collapsible=0;marginBottom=0;html=1;" parent="1" vertex="1">
                    <mxGeometry x="285" y="90" width="215" height="360" as="geometry"/>
                </mxCell>
                <mxCell id="20" value="&lt;font color=&quot;#000000&quot;&gt;- foodId : string&lt;/font&gt;" style="text;html=1;strokeColor=none;fillColor=none;align=left;verticalAlign=middle;spacingLeft=4;spacingRight=4;overflow=hidden;rotatable=0;points=[[0,0.5],[1,0.5]];portConstraint=eastwest;fontColor=#808080;" parent="17" vertex="1">
                    <mxGeometry y="23" width="215" height="20" as="geometry"/>
                </mxCell>
                <mxCell id="25" value="&lt;font color=&quot;#000000&quot;&gt;- name : string&lt;/font&gt;" style="text;html=1;strokeColor=none;fillColor=none;align=left;verticalAlign=middle;spacingLeft=4;spacingRight=4;overflow=hidden;rotatable=0;points=[[0,0.5],[1,0.5]];portConstraint=eastwest;fontColor=#808080;" parent="17" vertex="1">
                    <mxGeometry y="43" width="215" height="20" as="geometry"/>
                </mxCell>
                <mxCell id="26" value="&lt;font color=&quot;#000000&quot;&gt;- category : string&lt;/font&gt;" style="text;html=1;strokeColor=none;fillColor=none;align=left;verticalAlign=middle;spacingLeft=4;spacingRight=4;overflow=hidden;rotatable=0;points=[[0,0.5],[1,0.5]];portConstraint=eastwest;fontColor=#808080;" parent="17" vertex="1">
                    <mxGeometry y="63" width="215" height="20" as="geometry"/>
                </mxCell>
                <mxCell id="27" value="&lt;font color=&quot;#000000&quot;&gt;- price : double&lt;/font&gt;" style="text;html=1;strokeColor=none;fillColor=none;align=left;verticalAlign=middle;spacingLeft=4;spacingRight=4;overflow=hidden;rotatable=0;points=[[0,0.5],[1,0.5]];portConstraint=eastwest;fontColor=#808080;" parent="17" vertex="1">
                    <mxGeometry y="83" width="215" height="20" as="geometry"/>
                </mxCell>
                <mxCell id="22" value="" style="line;strokeWidth=1;fillColor=none;align=left;verticalAlign=middle;spacingTop=-1;spacingLeft=3;spacingRight=3;rotatable=0;labelPosition=right;points=[];portConstraint=eastwest;" parent="17" vertex="1">
                    <mxGeometry y="103" width="215" height="8" as="geometry"/>
                </mxCell>
                <mxCell id="28" value="&lt;font color=&quot;#000000&quot;&gt;+ Menu() :&lt;/font&gt;" style="text;html=1;strokeColor=none;fillColor=none;align=left;verticalAlign=middle;spacingLeft=4;spacingRight=4;overflow=hidden;rotatable=0;points=[[0,0.5],[1,0.5]];portConstraint=eastwest;fontColor=#808080;" parent="17" vertex="1">
                    <mxGeometry y="111" width="215" height="20" as="geometry"/>
                </mxCell>
                <mxCell id="29" value="&lt;font color=&quot;#000000&quot;&gt;+ Menu(foodId : string,&lt;br&gt;&lt;span style=&quot;white-space: pre;&quot;&gt;&#9;&lt;/span&gt;&amp;nbsp; &amp;nbsp; &amp;nbsp; name : string,&lt;br&gt;&lt;span style=&quot;white-space: pre;&quot;&gt;&#9;&lt;/span&gt;&amp;nbsp; &amp;nbsp; &amp;nbsp; category : string,&lt;br&gt;&lt;span style=&quot;white-space: pre;&quot;&gt;&#9;&lt;/span&gt;&lt;span style=&quot;white-space-collapse: preserve;&quot;&gt;&amp;nbsp;     price : double) :&lt;/span&gt;&amp;nbsp;&lt;/font&gt;" style="text;html=1;strokeColor=none;fillColor=none;align=left;verticalAlign=middle;spacingLeft=4;spacingRight=4;overflow=hidden;rotatable=0;points=[[0,0.5],[1,0.5]];portConstraint=eastwest;fontColor=#808080;" parent="17" vertex="1">
                    <mxGeometry y="131" width="215" height="69" as="geometry"/>
                </mxCell>
                <mxCell id="33" value="&lt;font color=&quot;#000000&quot;&gt;+ getFoodId() : string&lt;/font&gt;" style="text;html=1;strokeColor=none;fillColor=none;align=left;verticalAlign=middle;spacingLeft=4;spacingRight=4;overflow=hidden;rotatable=0;points=[[0,0.5],[1,0.5]];portConstraint=eastwest;fontColor=#808080;" parent="17" vertex="1">
                    <mxGeometry y="200" width="215" height="20" as="geometry"/>
                </mxCell>
                <mxCell id="36" value="&lt;font color=&quot;#000000&quot;&gt;+ getName() : string&lt;/font&gt;" style="text;html=1;strokeColor=none;fillColor=none;align=left;verticalAlign=middle;spacingLeft=4;spacingRight=4;overflow=hidden;rotatable=0;points=[[0,0.5],[1,0.5]];portConstraint=eastwest;fontColor=#808080;" parent="17" vertex="1">
                    <mxGeometry y="220" width="215" height="20" as="geometry"/>
                </mxCell>
                <mxCell id="31" value="&lt;font color=&quot;#000000&quot;&gt;+ getCategory() : string&lt;/font&gt;" style="text;html=1;strokeColor=none;fillColor=none;align=left;verticalAlign=middle;spacingLeft=4;spacingRight=4;overflow=hidden;rotatable=0;points=[[0,0.5],[1,0.5]];portConstraint=eastwest;fontColor=#808080;" parent="17" vertex="1">
                    <mxGeometry y="240" width="215" height="20" as="geometry"/>
                </mxCell>
                <mxCell id="35" value="&lt;font color=&quot;#000000&quot;&gt;+ getPrice() : price&lt;/font&gt;" style="text;html=1;strokeColor=none;fillColor=none;align=left;verticalAlign=middle;spacingLeft=4;spacingRight=4;overflow=hidden;rotatable=0;points=[[0,0.5],[1,0.5]];portConstraint=eastwest;fontColor=#808080;" parent="17" vertex="1">
                    <mxGeometry y="260" width="215" height="20" as="geometry"/>
                </mxCell>
                <mxCell id="32" value="&lt;font color=&quot;#000000&quot;&gt;+ setFoodId(foodId : string) : void&lt;/font&gt;" style="text;html=1;strokeColor=none;fillColor=none;align=left;verticalAlign=middle;spacingLeft=4;spacingRight=4;overflow=hidden;rotatable=0;points=[[0,0.5],[1,0.5]];portConstraint=eastwest;fontColor=#808080;" parent="17" vertex="1">
                    <mxGeometry y="280" width="215" height="20" as="geometry"/>
                </mxCell>
                <mxCell id="34" value="&lt;font color=&quot;#000000&quot;&gt;+ setName(name : string) : void&lt;/font&gt;" style="text;html=1;strokeColor=none;fillColor=none;align=left;verticalAlign=middle;spacingLeft=4;spacingRight=4;overflow=hidden;rotatable=0;points=[[0,0.5],[1,0.5]];portConstraint=eastwest;fontColor=#808080;" parent="17" vertex="1">
                    <mxGeometry y="300" width="215" height="20" as="geometry"/>
                </mxCell>
                <mxCell id="30" value="&lt;font color=&quot;#000000&quot;&gt;+ setCategory(category : string) : void&lt;/font&gt;" style="text;html=1;strokeColor=none;fillColor=none;align=left;verticalAlign=middle;spacingLeft=4;spacingRight=4;overflow=hidden;rotatable=0;points=[[0,0.5],[1,0.5]];portConstraint=eastwest;fontColor=#808080;" parent="17" vertex="1">
                    <mxGeometry y="320" width="215" height="20" as="geometry"/>
                </mxCell>
                <mxCell id="37" value="&lt;font color=&quot;#000000&quot;&gt;+ setPrice(price : double) : void&lt;/font&gt;" style="text;html=1;strokeColor=none;fillColor=none;align=left;verticalAlign=middle;spacingLeft=4;spacingRight=4;overflow=hidden;rotatable=0;points=[[0,0.5],[1,0.5]];portConstraint=eastwest;fontColor=#808080;" parent="17" vertex="1">
                    <mxGeometry y="340" width="215" height="20" as="geometry"/>
                </mxCell>
            </root>
        </mxGraphModel>
    </diagram>
    <diagram id="yb_ykckmhR52dgJJf3Ul" name="Page-2">
        <mxGraphModel dx="577" dy="419" grid="1" gridSize="10" guides="1" tooltips="1" connect="1" arrows="1" fold="1" page="1" pageScale="1" pageWidth="850" pageHeight="1100" math="0" shadow="0">
            <root>
                <mxCell id="0"/>
                <mxCell id="1" parent="0"/>
                <mxCell id="WejmfTvuR1iWin57AYpA-12" style="edgeStyle=none;html=1;exitX=0.5;exitY=1;exitDx=0;exitDy=0;fontColor=#000000;" parent="1" source="WejmfTvuR1iWin57AYpA-1" target="WejmfTvuR1iWin57AYpA-18" edge="1">
                    <mxGeometry relative="1" as="geometry"/>
                </mxCell>
                <mxCell id="WejmfTvuR1iWin57AYpA-1" value="Start" style="ellipse;whiteSpace=wrap;html=1;fontColor=#000000;" parent="1" vertex="1">
                    <mxGeometry x="127.5" y="60" width="90" height="30" as="geometry"/>
                </mxCell>
                <mxCell id="WejmfTvuR1iWin57AYpA-15" style="edgeStyle=none;html=1;exitX=1;exitY=0.5;exitDx=0;exitDy=0;fontColor=#000000;" parent="1" source="WejmfTvuR1iWin57AYpA-11" edge="1">
                    <mxGeometry relative="1" as="geometry">
                        <mxPoint x="990" y="180.5" as="targetPoint"/>
                        <mxPoint x="931.5" y="330.5" as="sourcePoint"/>
                    </mxGeometry>
                </mxCell>
                <mxCell id="WejmfTvuR1iWin57AYpA-11" value="Menu" style="shape=document;whiteSpace=wrap;html=1;boundedLbl=1;fillColor=#e1d5e7;strokeColor=#9673a6;" parent="1" vertex="1">
                    <mxGeometry x="840" y="160.5" width="80" height="40" as="geometry"/>
                </mxCell>
                <mxCell id="WejmfTvuR1iWin57AYpA-17" value="" style="group" parent="1" vertex="1" connectable="0">
                    <mxGeometry x="110" y="120" width="125" height="50" as="geometry"/>
                </mxCell>
                <mxCell id="WejmfTvuR1iWin57AYpA-18" value="choice" style="shape=parallelogram;perimeter=parallelogramPerimeter;whiteSpace=wrap;html=1;fixedSize=1;fontColor=#000000;" parent="WejmfTvuR1iWin57AYpA-17" vertex="1">
                    <mxGeometry y="10" width="125" height="40" as="geometry"/>
                </mxCell>
                <mxCell id="WejmfTvuR1iWin57AYpA-19" value="Input" style="text;html=1;align=center;verticalAlign=middle;resizable=0;points=[];autosize=1;strokeColor=none;fillColor=none;fontColor=#000000;" parent="WejmfTvuR1iWin57AYpA-17" vertex="1">
                    <mxGeometry x="15" width="50" height="30" as="geometry"/>
                </mxCell>
                <mxCell id="WejmfTvuR1iWin57AYpA-23" value="" style="edgeStyle=none;html=1;fontColor=#000000;" parent="1" source="WejmfTvuR1iWin57AYpA-20" target="WejmfTvuR1iWin57AYpA-22" edge="1">
                    <mxGeometry relative="1" as="geometry"/>
                </mxCell>
                <mxCell id="WejmfTvuR1iWin57AYpA-37" style="edgeStyle=none;html=1;exitX=0.5;exitY=1;exitDx=0;exitDy=0;entryX=0.5;entryY=0;entryDx=0;entryDy=0;fontColor=#000000;" parent="1" source="WejmfTvuR1iWin57AYpA-20" target="WejmfTvuR1iWin57AYpA-36" edge="1">
                    <mxGeometry relative="1" as="geometry"/>
                </mxCell>
                <mxCell id="WejmfTvuR1iWin57AYpA-20" value="(choice == 'Y' || choice == 'y')" style="rhombus;whiteSpace=wrap;html=1;fontColor=#000000;" parent="1" vertex="1">
                    <mxGeometry x="270" y="99.5" width="110" height="101" as="geometry"/>
                </mxCell>
                <mxCell id="WejmfTvuR1iWin57AYpA-21" value="" style="edgeStyle=none;html=1;fontColor=#000000;" parent="1" source="WejmfTvuR1iWin57AYpA-18" target="WejmfTvuR1iWin57AYpA-20" edge="1">
                    <mxGeometry relative="1" as="geometry"/>
                </mxCell>
                <mxCell id="WejmfTvuR1iWin57AYpA-28" value="" style="edgeStyle=none;html=1;fontColor=#000000;" parent="1" source="WejmfTvuR1iWin57AYpA-22" target="WejmfTvuR1iWin57AYpA-26" edge="1">
                    <mxGeometry relative="1" as="geometry"/>
                </mxCell>
                <mxCell id="WejmfTvuR1iWin57AYpA-22" value="(choice == 'N' || choice == 'n')" style="rhombus;whiteSpace=wrap;html=1;fontColor=#000000;" parent="1" vertex="1">
                    <mxGeometry x="437.5" y="99.5" width="110" height="101" as="geometry"/>
                </mxCell>
                <mxCell id="WejmfTvuR1iWin57AYpA-24" value="FALSE" style="text;html=1;align=center;verticalAlign=middle;resizable=0;points=[];autosize=1;strokeColor=none;fillColor=none;fontColor=#000000;" parent="1" vertex="1">
                    <mxGeometry x="375" y="120" width="60" height="30" as="geometry"/>
                </mxCell>
                <mxCell id="WejmfTvuR1iWin57AYpA-25" value="" style="group" parent="1" vertex="1" connectable="0">
                    <mxGeometry x="587.5" y="119" width="125" height="50" as="geometry"/>
                </mxCell>
                <mxCell id="WejmfTvuR1iWin57AYpA-26" value="&quot;Invalid input&quot;" style="shape=parallelogram;perimeter=parallelogramPerimeter;whiteSpace=wrap;html=1;fixedSize=1;fillColor=#f8cecc;strokeColor=#b85450;" parent="WejmfTvuR1iWin57AYpA-25" vertex="1">
                    <mxGeometry y="10" width="125" height="40" as="geometry"/>
                </mxCell>
                <mxCell id="WejmfTvuR1iWin57AYpA-27" value="Output" style="text;html=1;align=center;verticalAlign=middle;resizable=0;points=[];autosize=1;strokeColor=none;fillColor=none;fontColor=#000000;" parent="WejmfTvuR1iWin57AYpA-25" vertex="1">
                    <mxGeometry x="10" width="60" height="30" as="geometry"/>
                </mxCell>
                <mxCell id="WejmfTvuR1iWin57AYpA-29" value="FALSE" style="text;html=1;align=center;verticalAlign=middle;resizable=0;points=[];autosize=1;strokeColor=none;fillColor=none;fontColor=#000000;" parent="1" vertex="1">
                    <mxGeometry x="542.5" y="119" width="60" height="30" as="geometry"/>
                </mxCell>
                <mxCell id="WejmfTvuR1iWin57AYpA-36" value="A" style="ellipse;whiteSpace=wrap;html=1;fillColor=#e1d5e7;strokeColor=#9673a6;" parent="1" vertex="1">
                    <mxGeometry x="305" y="240" width="40" height="40" as="geometry"/>
                </mxCell>
                <mxCell id="TZEv2Tzzbd97Kp1g33DZ-4" style="edgeStyle=none;html=1;exitX=0.5;exitY=1;exitDx=0;exitDy=0;fontColor=#000000;fillColor=#e1d5e7;strokeColor=#000000;" parent="1" source="TZEv2Tzzbd97Kp1g33DZ-1" target="TZEv2Tzzbd97Kp1g33DZ-3" edge="1">
                    <mxGeometry relative="1" as="geometry"/>
                </mxCell>
                <mxCell id="TZEv2Tzzbd97Kp1g33DZ-1" value="A" style="ellipse;whiteSpace=wrap;html=1;fillColor=#e1d5e7;strokeColor=#9673a6;" parent="1" vertex="1">
                    <mxGeometry x="970" y="130" width="40" height="40" as="geometry"/>
                </mxCell>
                <mxCell id="TZEv2Tzzbd97Kp1g33DZ-9" style="edgeStyle=none;html=1;exitX=1;exitY=0.5;exitDx=0;exitDy=0;fontColor=#000000;fillColor=#e1d5e7;strokeColor=#000000;" parent="1" source="TZEv2Tzzbd97Kp1g33DZ-3" target="TZEv2Tzzbd97Kp1g33DZ-6" edge="1">
                    <mxGeometry relative="1" as="geometry"/>
                </mxCell>
                <mxCell id="TZEv2Tzzbd97Kp1g33DZ-12" value="" style="edgeStyle=none;html=1;fontColor=#000000;fillColor=#e1d5e7;strokeColor=#000000;rounded=0;" parent="1" source="TZEv2Tzzbd97Kp1g33DZ-3" target="TZEv2Tzzbd97Kp1g33DZ-11" edge="1">
                    <mxGeometry relative="1" as="geometry"/>
                </mxCell>
                <mxCell id="TZEv2Tzzbd97Kp1g33DZ-3" value="!nameFile" style="rhombus;whiteSpace=wrap;html=1;fillColor=#e1d5e7;strokeColor=#9673a6;" parent="1" vertex="1">
                    <mxGeometry x="950" y="200.5" width="80" height="80" as="geometry"/>
                </mxCell>
                <mxCell id="TZEv2Tzzbd97Kp1g33DZ-5" value="" style="group;fillColor=none;strokeColor=none;" parent="1" vertex="1" connectable="0">
                    <mxGeometry x="1080" y="210" width="125" height="50" as="geometry"/>
                </mxCell>
                <mxCell id="TZEv2Tzzbd97Kp1g33DZ-6" value="&quot;ERROR&quot;" style="shape=parallelogram;perimeter=parallelogramPerimeter;whiteSpace=wrap;html=1;fixedSize=1;fillColor=#e1d5e7;strokeColor=#9673a6;" parent="TZEv2Tzzbd97Kp1g33DZ-5" vertex="1">
                    <mxGeometry y="10" width="125" height="40" as="geometry"/>
                </mxCell>
                <mxCell id="TZEv2Tzzbd97Kp1g33DZ-7" value="Ouput" style="text;html=1;align=center;verticalAlign=middle;resizable=0;points=[];autosize=1;strokeColor=none;fillColor=none;" parent="TZEv2Tzzbd97Kp1g33DZ-5" vertex="1">
                    <mxGeometry x="10" width="60" height="30" as="geometry"/>
                </mxCell>
                <mxCell id="TZEv2Tzzbd97Kp1g33DZ-10" value="TRUE" style="text;html=1;align=center;verticalAlign=middle;resizable=0;points=[];autosize=1;strokeColor=none;fillColor=none;" parent="1" vertex="1">
                    <mxGeometry x="1025" y="210" width="60" height="30" as="geometry"/>
                </mxCell>
                <mxCell id="TZEv2Tzzbd97Kp1g33DZ-19" value="" style="edgeStyle=none;html=1;fontColor=#000000;fillColor=#e1d5e7;strokeColor=#000000;" parent="1" source="TZEv2Tzzbd97Kp1g33DZ-11" target="TZEv2Tzzbd97Kp1g33DZ-17" edge="1">
                    <mxGeometry relative="1" as="geometry"/>
                </mxCell>
                <mxCell id="TZEv2Tzzbd97Kp1g33DZ-31" style="edgeStyle=none;rounded=0;html=1;exitX=1;exitY=0.5;exitDx=0;exitDy=0;entryX=0;entryY=0.5;entryDx=0;entryDy=0;strokeColor=#000000;fontColor=#000000;" parent="1" source="TZEv2Tzzbd97Kp1g33DZ-11" target="TZEv2Tzzbd97Kp1g33DZ-30" edge="1">
                    <mxGeometry relative="1" as="geometry"/>
                </mxCell>
                <mxCell id="TZEv2Tzzbd97Kp1g33DZ-11" value="(!nameFile.eof()&lt;br&gt;&amp;amp;&amp;amp;&lt;br&gt;size &amp;lt; SIZE)" style="rhombus;whiteSpace=wrap;html=1;fillColor=#e1d5e7;strokeColor=#9673a6;" parent="1" vertex="1">
                    <mxGeometry x="925" y="320" width="130" height="110" as="geometry"/>
                </mxCell>
                <mxCell id="TZEv2Tzzbd97Kp1g33DZ-13" value="End" style="ellipse;whiteSpace=wrap;html=1;fillColor=#e1d5e7;strokeColor=#9673a6;" parent="1" vertex="1">
                    <mxGeometry x="1097.5" y="290" width="90" height="30" as="geometry"/>
                </mxCell>
                <mxCell id="TZEv2Tzzbd97Kp1g33DZ-14" value="" style="edgeStyle=none;html=1;fontColor=#000000;fillColor=#e1d5e7;strokeColor=#000000;" parent="1" source="TZEv2Tzzbd97Kp1g33DZ-6" target="TZEv2Tzzbd97Kp1g33DZ-13" edge="1">
                    <mxGeometry relative="1" as="geometry"/>
                </mxCell>
                <mxCell id="TZEv2Tzzbd97Kp1g33DZ-15" value="FALSE" style="text;html=1;align=center;verticalAlign=middle;resizable=0;points=[];autosize=1;strokeColor=none;fillColor=none;" parent="1" vertex="1">
                    <mxGeometry x="985" y="280.5" width="60" height="30" as="geometry"/>
                </mxCell>
                <mxCell id="TZEv2Tzzbd97Kp1g33DZ-16" value="" style="group;fillColor=none;strokeColor=none;" parent="1" vertex="1" connectable="0">
                    <mxGeometry x="927.5" y="460" width="125" height="50" as="geometry"/>
                </mxCell>
                <mxCell id="TZEv2Tzzbd97Kp1g33DZ-17" value="namefile" style="shape=parallelogram;perimeter=parallelogramPerimeter;whiteSpace=wrap;html=1;fixedSize=1;fillColor=#e1d5e7;strokeColor=#9673a6;" parent="TZEv2Tzzbd97Kp1g33DZ-16" vertex="1">
                    <mxGeometry y="10" width="125" height="40" as="geometry"/>
                </mxCell>
                <mxCell id="TZEv2Tzzbd97Kp1g33DZ-18" value="Input" style="text;html=1;align=center;verticalAlign=middle;resizable=0;points=[];autosize=1;strokeColor=none;fillColor=none;" parent="TZEv2Tzzbd97Kp1g33DZ-16" vertex="1">
                    <mxGeometry x="15" width="50" height="30" as="geometry"/>
                </mxCell>
                <mxCell id="TZEv2Tzzbd97Kp1g33DZ-22" style="edgeStyle=none;rounded=0;html=1;exitX=0.5;exitY=0;exitDx=0;exitDy=0;fontColor=#000000;entryX=0;entryY=0.5;entryDx=0;entryDy=0;fillColor=#e1d5e7;strokeColor=#000000;" parent="1" source="TZEv2Tzzbd97Kp1g33DZ-20" target="TZEv2Tzzbd97Kp1g33DZ-11" edge="1">
                    <mxGeometry relative="1" as="geometry">
                        <mxPoint x="1060" y="370" as="targetPoint"/>
                        <Array as="points">
                            <mxPoint x="875" y="375"/>
                        </Array>
                    </mxGeometry>
                </mxCell>
                <mxCell id="TZEv2Tzzbd97Kp1g33DZ-20" value="size++" style="whiteSpace=wrap;html=1;fillColor=#e1d5e7;strokeColor=#9673a6;" parent="1" vertex="1">
                    <mxGeometry x="850" y="410" width="50" height="20" as="geometry"/>
                </mxCell>
                <mxCell id="TZEv2Tzzbd97Kp1g33DZ-23" value="TRUE" style="text;html=1;align=center;verticalAlign=middle;resizable=0;points=[];autosize=1;strokeColor=none;fillColor=none;" parent="1" vertex="1">
                    <mxGeometry x="985" y="430" width="60" height="30" as="geometry"/>
                </mxCell>
                <mxCell id="TZEv2Tzzbd97Kp1g33DZ-24" style="edgeStyle=none;rounded=0;html=1;exitX=0;exitY=0.5;exitDx=0;exitDy=0;entryX=0.5;entryY=1;entryDx=0;entryDy=0;fontColor=#000000;fillColor=#e1d5e7;strokeColor=#000000;" parent="1" source="TZEv2Tzzbd97Kp1g33DZ-17" target="TZEv2Tzzbd97Kp1g33DZ-20" edge="1">
                    <mxGeometry relative="1" as="geometry">
                        <Array as="points">
                            <mxPoint x="875" y="490"/>
                        </Array>
                    </mxGeometry>
                </mxCell>
                <mxCell id="TZEv2Tzzbd97Kp1g33DZ-25" value="A" style="ellipse;whiteSpace=wrap;html=1;fillColor=#e1d5e7;strokeColor=#9673a6;" parent="1" vertex="1">
                    <mxGeometry x="1160" y="430" width="40" height="40" as="geometry"/>
                </mxCell>
                <mxCell id="TZEv2Tzzbd97Kp1g33DZ-32" value="" style="edgeStyle=none;rounded=0;html=1;strokeColor=#000000;fontColor=#000000;" parent="1" source="TZEv2Tzzbd97Kp1g33DZ-30" target="TZEv2Tzzbd97Kp1g33DZ-25" edge="1">
                    <mxGeometry relative="1" as="geometry"/>
                </mxCell>
                <mxCell id="TZEv2Tzzbd97Kp1g33DZ-30" value="nameFile.close()" style="whiteSpace=wrap;html=1;fillColor=#e1d5e7;strokeColor=#9673a6;" parent="1" vertex="1">
                    <mxGeometry x="1120" y="357.5" width="120" height="35" as="geometry"/>
                </mxCell>
                <mxCell id="TZEv2Tzzbd97Kp1g33DZ-33" value="FLASE" style="text;html=1;align=center;verticalAlign=middle;resizable=0;points=[];autosize=1;strokeColor=none;fillColor=none;" parent="1" vertex="1">
                    <mxGeometry x="1051.5" y="376" width="60" height="30" as="geometry"/>
                </mxCell>
                <mxCell id="TZEv2Tzzbd97Kp1g33DZ-38" value="" style="edgeStyle=none;rounded=0;html=1;strokeColor=#000000;fontColor=#000000;" parent="1" source="TZEv2Tzzbd97Kp1g33DZ-34" target="TZEv2Tzzbd97Kp1g33DZ-35" edge="1">
                    <mxGeometry relative="1" as="geometry"/>
                </mxCell>
                <mxCell id="TZEv2Tzzbd97Kp1g33DZ-34" value="displayHeader()" style="shape=process;whiteSpace=wrap;html=1;backgroundOutline=1;labelBackgroundColor=none;fillColor=#dae8fc;strokeColor=#6c8ebf;" parent="1" vertex="1">
                    <mxGeometry x="210" y="300.5" width="120" height="37.5" as="geometry"/>
                </mxCell>
                <mxCell id="TZEv2Tzzbd97Kp1g33DZ-60" style="edgeStyle=none;rounded=0;html=1;exitX=0.5;exitY=1;exitDx=0;exitDy=0;entryX=0.974;entryY=0.396;entryDx=0;entryDy=0;entryPerimeter=0;strokeColor=#000000;fontColor=#000000;" parent="1" source="TZEv2Tzzbd97Kp1g33DZ-35" target="TZEv2Tzzbd97Kp1g33DZ-59" edge="1">
                    <mxGeometry relative="1" as="geometry"/>
                </mxCell>
                <mxCell id="TZEv2Tzzbd97Kp1g33DZ-35" value="displayMenu(menuArray)" style="shape=process;whiteSpace=wrap;html=1;backgroundOutline=1;labelBackgroundColor=none;fillColor=#dae8fc;strokeColor=#6c8ebf;" parent="1" vertex="1">
                    <mxGeometry x="185" y="359" width="170" height="37.5" as="geometry"/>
                </mxCell>
                <mxCell id="TZEv2Tzzbd97Kp1g33DZ-37" value="" style="edgeStyle=none;rounded=0;html=1;strokeColor=#000000;fontColor=#000000;" parent="1" source="TZEv2Tzzbd97Kp1g33DZ-36" target="TZEv2Tzzbd97Kp1g33DZ-34" edge="1">
                    <mxGeometry relative="1" as="geometry"/>
                </mxCell>
                <mxCell id="TZEv2Tzzbd97Kp1g33DZ-36" value="A" style="ellipse;whiteSpace=wrap;html=1;fillColor=#e1d5e7;strokeColor=#9673a6;" parent="1" vertex="1">
                    <mxGeometry x="250" y="240" width="40" height="40" as="geometry"/>
                </mxCell>
                <mxCell id="TZEv2Tzzbd97Kp1g33DZ-57" value="" style="group" parent="1" vertex="1" connectable="0">
                    <mxGeometry x="206.5" y="410" width="125" height="50" as="geometry"/>
                </mxCell>
                <mxCell id="TZEv2Tzzbd97Kp1g33DZ-58" value="choice" style="shape=parallelogram;perimeter=parallelogramPerimeter;whiteSpace=wrap;html=1;fixedSize=1;fontColor=#000000;" parent="TZEv2Tzzbd97Kp1g33DZ-57" vertex="1">
                    <mxGeometry y="10" width="125" height="40" as="geometry"/>
                </mxCell>
                <mxCell id="TZEv2Tzzbd97Kp1g33DZ-59" value="Input" style="text;html=1;align=center;verticalAlign=middle;resizable=0;points=[];autosize=1;strokeColor=none;fillColor=none;fontColor=#000000;" parent="TZEv2Tzzbd97Kp1g33DZ-57" vertex="1">
                    <mxGeometry x="15" width="50" height="30" as="geometry"/>
                </mxCell>
                <mxCell id="TZEv2Tzzbd97Kp1g33DZ-64" value="" style="edgeStyle=none;rounded=0;html=1;strokeColor=#000000;fontColor=#000000;" parent="1" source="TZEv2Tzzbd97Kp1g33DZ-61" target="TZEv2Tzzbd97Kp1g33DZ-63" edge="1">
                    <mxGeometry relative="1" as="geometry"/>
                </mxCell>
                <mxCell id="TZEv2Tzzbd97Kp1g33DZ-70" style="edgeStyle=none;rounded=0;html=1;exitX=0.5;exitY=1;exitDx=0;exitDy=0;strokeColor=#000000;fontColor=#000000;" parent="1" source="TZEv2Tzzbd97Kp1g33DZ-61" target="TZEv2Tzzbd97Kp1g33DZ-68" edge="1">
                    <mxGeometry relative="1" as="geometry"/>
                </mxCell>
                <mxCell id="TZEv2Tzzbd97Kp1g33DZ-61" value="(choice == V ||&lt;br&gt;choice == v)" style="rhombus;whiteSpace=wrap;html=1;rounded=0;glass=0;labelBackgroundColor=none;fontColor=#000000;fillColor=default;" parent="1" vertex="1">
                    <mxGeometry x="212.5" y="490" width="115" height="80" as="geometry"/>
                </mxCell>
                <mxCell id="TZEv2Tzzbd97Kp1g33DZ-62" value="" style="edgeStyle=none;rounded=0;html=1;strokeColor=#000000;fontColor=#000000;" parent="1" source="TZEv2Tzzbd97Kp1g33DZ-58" target="TZEv2Tzzbd97Kp1g33DZ-61" edge="1">
                    <mxGeometry relative="1" as="geometry"/>
                </mxCell>
                <mxCell id="TZEv2Tzzbd97Kp1g33DZ-63" value="(choice == S ||&lt;br&gt;choice == s)" style="rhombus;whiteSpace=wrap;html=1;rounded=0;glass=0;labelBackgroundColor=none;fontColor=#000000;fillColor=default;" parent="1" vertex="1">
                    <mxGeometry x="390" y="490" width="115" height="80" as="geometry"/>
                </mxCell>
                <mxCell id="TZEv2Tzzbd97Kp1g33DZ-65" value="FALSE" style="text;html=1;align=center;verticalAlign=middle;resizable=0;points=[];autosize=1;strokeColor=none;fillColor=none;fontColor=#000000;" parent="1" vertex="1">
                    <mxGeometry x="327.5" y="500" width="60" height="30" as="geometry"/>
                </mxCell>
                <mxCell id="TZEv2Tzzbd97Kp1g33DZ-67" value="" style="group" parent="1" vertex="1" connectable="0">
                    <mxGeometry x="207.5" y="590" width="125" height="50" as="geometry"/>
                </mxCell>
                <mxCell id="TZEv2Tzzbd97Kp1g33DZ-68" value="choiceSort" style="shape=parallelogram;perimeter=parallelogramPerimeter;whiteSpace=wrap;html=1;fixedSize=1;fontColor=#000000;" parent="TZEv2Tzzbd97Kp1g33DZ-67" vertex="1">
                    <mxGeometry y="10" width="125" height="40" as="geometry"/>
                </mxCell>
                <mxCell id="TZEv2Tzzbd97Kp1g33DZ-69" value="Input" style="text;html=1;align=center;verticalAlign=middle;resizable=0;points=[];autosize=1;strokeColor=none;fillColor=none;fontColor=#000000;" parent="TZEv2Tzzbd97Kp1g33DZ-67" vertex="1">
                    <mxGeometry x="15" width="50" height="30" as="geometry"/>
                </mxCell>
                <mxCell id="TZEv2Tzzbd97Kp1g33DZ-71" value="TRUE" style="text;html=1;align=center;verticalAlign=middle;resizable=0;points=[];autosize=1;strokeColor=none;fillColor=none;fontColor=#000000;" parent="TZEv2Tzzbd97Kp1g33DZ-67" vertex="1">
                    <mxGeometry x="62.5" y="-20" width="60" height="30" as="geometry"/>
                </mxCell>
                <mxCell id="TZEv2Tzzbd97Kp1g33DZ-75" style="edgeStyle=none;rounded=0;html=1;exitX=0.5;exitY=1;exitDx=0;exitDy=0;entryX=0.5;entryY=0;entryDx=0;entryDy=0;strokeColor=#000000;fontColor=#000000;" parent="1" source="TZEv2Tzzbd97Kp1g33DZ-72" target="TZEv2Tzzbd97Kp1g33DZ-74" edge="1">
                    <mxGeometry relative="1" as="geometry"/>
                </mxCell>
                <mxCell id="TZEv2Tzzbd97Kp1g33DZ-72" value="switch (choiceSort)" style="whiteSpace=wrap;html=1;rounded=0;glass=0;labelBackgroundColor=none;fontColor=#000000;fillColor=default;" parent="1" vertex="1">
                    <mxGeometry x="210" y="660" width="120" height="30" as="geometry"/>
                </mxCell>
                <mxCell id="TZEv2Tzzbd97Kp1g33DZ-73" value="" style="edgeStyle=none;rounded=0;html=1;strokeColor=#000000;fontColor=#000000;" parent="1" source="TZEv2Tzzbd97Kp1g33DZ-68" target="TZEv2Tzzbd97Kp1g33DZ-72" edge="1">
                    <mxGeometry relative="1" as="geometry"/>
                </mxCell>
                <mxCell id="TZEv2Tzzbd97Kp1g33DZ-77" value="" style="edgeStyle=none;rounded=0;html=1;strokeColor=#000000;fontColor=#000000;" parent="1" source="TZEv2Tzzbd97Kp1g33DZ-74" target="TZEv2Tzzbd97Kp1g33DZ-76" edge="1">
                    <mxGeometry relative="1" as="geometry"/>
                </mxCell>
                <mxCell id="TZEv2Tzzbd97Kp1g33DZ-79" value="" style="edgeStyle=none;rounded=0;html=1;strokeColor=#000000;fontColor=#000000;" parent="1" source="TZEv2Tzzbd97Kp1g33DZ-74" target="TZEv2Tzzbd97Kp1g33DZ-78" edge="1">
                    <mxGeometry relative="1" as="geometry"/>
                </mxCell>
                <mxCell id="TZEv2Tzzbd97Kp1g33DZ-74" value="case 1 :" style="rhombus;whiteSpace=wrap;html=1;rounded=0;glass=0;labelBackgroundColor=none;fontColor=#000000;fillColor=default;" parent="1" vertex="1">
                    <mxGeometry x="230" y="710" width="80" height="60" as="geometry"/>
                </mxCell>
                <mxCell id="TZEv2Tzzbd97Kp1g33DZ-76" value="case 2 :" style="rhombus;whiteSpace=wrap;html=1;rounded=0;glass=0;labelBackgroundColor=none;fontColor=#000000;fillColor=default;" parent="1" vertex="1">
                    <mxGeometry x="230" y="790" width="80" height="60" as="geometry"/>
                </mxCell>
                <mxCell id="TZEv2Tzzbd97Kp1g33DZ-78" value="foodIdASC(menuArray)" style="shape=process;whiteSpace=wrap;html=1;backgroundOutline=1;rounded=0;glass=0;labelBackgroundColor=none;fontColor=#000000;fillColor=default;" parent="1" vertex="1">
                    <mxGeometry x="375" y="720" width="170" height="40" as="geometry"/>
                </mxCell>
            </root>
        </mxGraphModel>
    </diagram>
    <diagram id="g4N4zYVdvs5P6aclr_mc" name="SORTING FUNCTION">
        <mxGraphModel dx="1282" dy="931" grid="1" gridSize="10" guides="1" tooltips="1" connect="1" arrows="1" fold="1" page="1" pageScale="1" pageWidth="850" pageHeight="1100" math="0" shadow="0">
            <root>
                <mxCell id="0"/>
                <mxCell id="1" parent="0"/>
                <mxCell id="TAY_zQH2FSB1GOOQ_em7-4" value="" style="edgeStyle=none;html=1;" edge="1" parent="1" source="TAY_zQH2FSB1GOOQ_em7-1" target="TAY_zQH2FSB1GOOQ_em7-3">
                    <mxGeometry relative="1" as="geometry"/>
                </mxCell>
                <mxCell id="TAY_zQH2FSB1GOOQ_em7-1" value="printSortedResult(menuArray)" style="rounded=1;whiteSpace=wrap;html=1;glass=0;labelBackgroundColor=none;fillColor=#dae8fc;arcSize=50;strokeColor=#6c8ebf;" vertex="1" parent="1">
                    <mxGeometry x="710" y="290" width="170" height="37.5" as="geometry"/>
                </mxCell>
                <mxCell id="ScKlds2JbE53UXnpgSoN-2" value="displayHeader()" style="rounded=1;whiteSpace=wrap;html=1;glass=0;labelBackgroundColor=none;fillColor=#dae8fc;arcSize=50;strokeColor=#6c8ebf;" parent="1" vertex="1">
                    <mxGeometry x="648.75" y="70" width="107.5" height="37.5" as="geometry"/>
                </mxCell>
                <mxCell id="ScKlds2JbE53UXnpgSoN-5" value="" style="group;fillColor=none;strokeColor=none;" parent="1" vertex="1" connectable="0">
                    <mxGeometry x="640" y="130" width="125" height="50" as="geometry"/>
                </mxCell>
                <mxCell id="ScKlds2JbE53UXnpgSoN-6" value="Header" style="shape=parallelogram;perimeter=parallelogramPerimeter;whiteSpace=wrap;html=1;fixedSize=1;fillColor=#dae8fc;strokeColor=#6c8ebf;" parent="ScKlds2JbE53UXnpgSoN-5" vertex="1">
                    <mxGeometry y="10" width="125" height="40" as="geometry"/>
                </mxCell>
                <mxCell id="ScKlds2JbE53UXnpgSoN-7" value="Ouput" style="text;html=1;align=center;verticalAlign=middle;resizable=0;points=[];autosize=1;strokeColor=none;fillColor=none;" parent="ScKlds2JbE53UXnpgSoN-5" vertex="1">
                    <mxGeometry x="10" width="60" height="30" as="geometry"/>
                </mxCell>
                <mxCell id="ScKlds2JbE53UXnpgSoN-1" style="edgeStyle=none;rounded=0;html=1;exitX=0.5;exitY=1;exitDx=0;exitDy=0;strokeColor=#000000;fontColor=#000000;" parent="1" source="ScKlds2JbE53UXnpgSoN-2" target="ScKlds2JbE53UXnpgSoN-6" edge="1">
                    <mxGeometry relative="1" as="geometry"/>
                </mxCell>
                <mxCell id="ScKlds2JbE53UXnpgSoN-13" value="" style="rounded=1;whiteSpace=wrap;html=1;glass=0;labelBackgroundColor=none;fillColor=#dae8fc;arcSize=50;strokeColor=#6c8ebf;" parent="1" vertex="1">
                    <mxGeometry x="648.75" y="210" width="107.5" height="37.5" as="geometry"/>
                </mxCell>
                <mxCell id="ScKlds2JbE53UXnpgSoN-14" value="" style="edgeStyle=none;rounded=0;html=1;strokeColor=#000000;fontColor=#000000;" parent="1" source="ScKlds2JbE53UXnpgSoN-6" target="ScKlds2JbE53UXnpgSoN-13" edge="1">
                    <mxGeometry relative="1" as="geometry"/>
                </mxCell>
                <mxCell id="ScKlds2JbE53UXnpgSoN-16" value="swap(&amp;amp;a, &amp;amp;b)" style="rounded=1;whiteSpace=wrap;html=1;glass=0;labelBackgroundColor=none;fillColor=#dae8fc;arcSize=50;strokeColor=#6c8ebf;" parent="1" vertex="1">
                    <mxGeometry x="790" y="70" width="148.75" height="37.5" as="geometry"/>
                </mxCell>
                <mxCell id="ScKlds2JbE53UXnpgSoN-17" value="" style="rounded=1;whiteSpace=wrap;html=1;glass=0;labelBackgroundColor=none;fillColor=#dae8fc;arcSize=50;strokeColor=#6c8ebf;" parent="1" vertex="1">
                    <mxGeometry x="810.6199999999999" y="209" width="107.5" height="37.5" as="geometry"/>
                </mxCell>
                <mxCell id="ScKlds2JbE53UXnpgSoN-18" value="" style="edgeStyle=none;rounded=0;html=1;" parent="1" source="ScKlds2JbE53UXnpgSoN-19" target="ScKlds2JbE53UXnpgSoN-17" edge="1">
                    <mxGeometry relative="1" as="geometry"/>
                </mxCell>
                <mxCell id="ScKlds2JbE53UXnpgSoN-19" value="Menu temp = a;&lt;br&gt;a = b;&lt;br&gt;b = templ" style="whiteSpace=wrap;html=1;fillColor=#dae8fc;strokeColor=#6c8ebf;" parent="1" vertex="1">
                    <mxGeometry x="804.3699999999999" y="129" width="120" height="60" as="geometry"/>
                </mxCell>
                <mxCell id="ScKlds2JbE53UXnpgSoN-15" style="edgeStyle=none;rounded=0;html=1;exitX=0.5;exitY=1;exitDx=0;exitDy=0;strokeColor=#000000;fontColor=#000000;entryX=0.5;entryY=0;entryDx=0;entryDy=0;" parent="1" source="ScKlds2JbE53UXnpgSoN-16" target="ScKlds2JbE53UXnpgSoN-19" edge="1">
                    <mxGeometry relative="1" as="geometry">
                        <mxPoint x="864.3719417475729" y="139" as="targetPoint"/>
                    </mxGeometry>
                </mxCell>
                <mxCell id="TAY_zQH2FSB1GOOQ_em7-12" value="" style="edgeStyle=none;html=1;entryX=0;entryY=0.5;entryDx=0;entryDy=0;" edge="1" parent="1" source="TAY_zQH2FSB1GOOQ_em7-2" target="TAY_zQH2FSB1GOOQ_em7-7">
                    <mxGeometry relative="1" as="geometry"/>
                </mxCell>
                <mxCell id="TAY_zQH2FSB1GOOQ_em7-17" value="" style="edgeStyle=none;html=1;" edge="1" parent="1" source="TAY_zQH2FSB1GOOQ_em7-2" target="TAY_zQH2FSB1GOOQ_em7-16">
                    <mxGeometry relative="1" as="geometry"/>
                </mxCell>
                <mxCell id="TAY_zQH2FSB1GOOQ_em7-2" value="(i &amp;lt; SIZE)" style="rhombus;whiteSpace=wrap;html=1;" vertex="1" parent="1">
                    <mxGeometry x="755" y="452" width="80" height="70" as="geometry"/>
                </mxCell>
                <mxCell id="TAY_zQH2FSB1GOOQ_em7-10" value="" style="edgeStyle=none;html=1;" edge="1" parent="1" source="TAY_zQH2FSB1GOOQ_em7-3" target="TAY_zQH2FSB1GOOQ_em7-2">
                    <mxGeometry relative="1" as="geometry"/>
                </mxCell>
                <mxCell id="TAY_zQH2FSB1GOOQ_em7-3" value="i = 0" style="whiteSpace=wrap;html=1;" vertex="1" parent="1">
                    <mxGeometry x="765" y="360" width="60" height="30" as="geometry"/>
                </mxCell>
                <mxCell id="TAY_zQH2FSB1GOOQ_em7-9" value="" style="group" vertex="1" connectable="0" parent="1">
                    <mxGeometry x="855" y="432" width="210" height="100" as="geometry"/>
                </mxCell>
                <mxCell id="TAY_zQH2FSB1GOOQ_em7-7" value="(i+2)&lt;br&gt;menuArray[i].getFoodId()&lt;br&gt;menuArray[i].getName()&lt;br&gt;menuArray[i].getCategory()&lt;br&gt;menuArray[i].getPrice()&lt;br&gt;" style="shape=parallelogram;perimeter=parallelogramPerimeter;whiteSpace=wrap;html=1;fixedSize=1;fillColor=#dae8fc;strokeColor=#6c8ebf;" vertex="1" parent="TAY_zQH2FSB1GOOQ_em7-9">
                    <mxGeometry y="8" width="210" height="92" as="geometry"/>
                </mxCell>
                <mxCell id="TAY_zQH2FSB1GOOQ_em7-8" value="Ouput" style="text;html=1;align=center;verticalAlign=middle;resizable=0;points=[];autosize=1;strokeColor=none;fillColor=none;" vertex="1" parent="TAY_zQH2FSB1GOOQ_em7-9">
                    <mxGeometry x="10" width="60" height="30" as="geometry"/>
                </mxCell>
                <mxCell id="TAY_zQH2FSB1GOOQ_em7-15" style="edgeStyle=none;html=1;" edge="1" parent="1" source="TAY_zQH2FSB1GOOQ_em7-13">
                    <mxGeometry relative="1" as="geometry">
                        <mxPoint x="796" y="405" as="targetPoint"/>
                        <mxPoint x="951" y="405" as="sourcePoint"/>
                    </mxGeometry>
                </mxCell>
                <mxCell id="TAY_zQH2FSB1GOOQ_em7-13" value="i++" style="whiteSpace=wrap;html=1;" vertex="1" parent="1">
                    <mxGeometry x="930" y="390" width="60" height="30" as="geometry"/>
                </mxCell>
                <mxCell id="TAY_zQH2FSB1GOOQ_em7-14" value="" style="edgeStyle=none;html=1;" edge="1" parent="1" source="TAY_zQH2FSB1GOOQ_em7-7" target="TAY_zQH2FSB1GOOQ_em7-13">
                    <mxGeometry relative="1" as="geometry"/>
                </mxCell>
                <mxCell id="TAY_zQH2FSB1GOOQ_em7-16" value="" style="rounded=1;whiteSpace=wrap;html=1;glass=0;labelBackgroundColor=none;fillColor=#dae8fc;arcSize=50;strokeColor=#6c8ebf;" vertex="1" parent="1">
                    <mxGeometry x="741.25" y="560" width="107.5" height="37.5" as="geometry"/>
                </mxCell>
                <mxCell id="TAY_zQH2FSB1GOOQ_em7-18" value="" style="edgeStyle=none;html=1;" edge="1" parent="1" source="TAY_zQH2FSB1GOOQ_em7-19" target="TAY_zQH2FSB1GOOQ_em7-24">
                    <mxGeometry relative="1" as="geometry"/>
                </mxCell>
                <mxCell id="TAY_zQH2FSB1GOOQ_em7-19" value="displayMenu(menuArray)" style="rounded=1;whiteSpace=wrap;html=1;glass=0;labelBackgroundColor=none;fillColor=#dae8fc;arcSize=50;strokeColor=#6c8ebf;" vertex="1" parent="1">
                    <mxGeometry x="1100" y="290" width="170" height="37.5" as="geometry"/>
                </mxCell>
                <mxCell id="TAY_zQH2FSB1GOOQ_em7-20" value="" style="edgeStyle=none;html=1;entryX=0;entryY=0.5;entryDx=0;entryDy=0;" edge="1" parent="1" source="TAY_zQH2FSB1GOOQ_em7-22" target="TAY_zQH2FSB1GOOQ_em7-26">
                    <mxGeometry relative="1" as="geometry"/>
                </mxCell>
                <mxCell id="TAY_zQH2FSB1GOOQ_em7-21" value="" style="edgeStyle=none;html=1;" edge="1" parent="1" source="TAY_zQH2FSB1GOOQ_em7-22" target="TAY_zQH2FSB1GOOQ_em7-31">
                    <mxGeometry relative="1" as="geometry"/>
                </mxCell>
                <mxCell id="TAY_zQH2FSB1GOOQ_em7-22" value="(i &amp;lt; SIZE)" style="rhombus;whiteSpace=wrap;html=1;" vertex="1" parent="1">
                    <mxGeometry x="1145" y="452" width="80" height="70" as="geometry"/>
                </mxCell>
                <mxCell id="TAY_zQH2FSB1GOOQ_em7-23" value="" style="edgeStyle=none;html=1;" edge="1" parent="1" source="TAY_zQH2FSB1GOOQ_em7-24" target="TAY_zQH2FSB1GOOQ_em7-22">
                    <mxGeometry relative="1" as="geometry"/>
                </mxCell>
                <mxCell id="TAY_zQH2FSB1GOOQ_em7-24" value="i = 0" style="whiteSpace=wrap;html=1;" vertex="1" parent="1">
                    <mxGeometry x="1155" y="360" width="60" height="30" as="geometry"/>
                </mxCell>
                <mxCell id="TAY_zQH2FSB1GOOQ_em7-25" value="" style="group" vertex="1" connectable="0" parent="1">
                    <mxGeometry x="1245" y="432" width="210" height="100" as="geometry"/>
                </mxCell>
                <mxCell id="TAY_zQH2FSB1GOOQ_em7-26" value="(i+2)&lt;br&gt;menuArray[i].getFoodId()&lt;br&gt;menuArray[i].getName()&lt;br&gt;menuArray[i].getCategory()&lt;br&gt;menuArray[i].getPrice()&lt;br&gt;" style="shape=parallelogram;perimeter=parallelogramPerimeter;whiteSpace=wrap;html=1;fixedSize=1;fillColor=#dae8fc;strokeColor=#6c8ebf;" vertex="1" parent="TAY_zQH2FSB1GOOQ_em7-25">
                    <mxGeometry y="8" width="210" height="92" as="geometry"/>
                </mxCell>
                <mxCell id="TAY_zQH2FSB1GOOQ_em7-27" value="Ouput" style="text;html=1;align=center;verticalAlign=middle;resizable=0;points=[];autosize=1;strokeColor=none;fillColor=none;" vertex="1" parent="TAY_zQH2FSB1GOOQ_em7-25">
                    <mxGeometry x="10" width="60" height="30" as="geometry"/>
                </mxCell>
                <mxCell id="TAY_zQH2FSB1GOOQ_em7-28" style="edgeStyle=none;html=1;" edge="1" parent="1" source="TAY_zQH2FSB1GOOQ_em7-29">
                    <mxGeometry relative="1" as="geometry">
                        <mxPoint x="1186" y="405" as="targetPoint"/>
                        <mxPoint x="1341" y="405" as="sourcePoint"/>
                    </mxGeometry>
                </mxCell>
                <mxCell id="TAY_zQH2FSB1GOOQ_em7-29" value="i++" style="whiteSpace=wrap;html=1;" vertex="1" parent="1">
                    <mxGeometry x="1320" y="390" width="60" height="30" as="geometry"/>
                </mxCell>
                <mxCell id="TAY_zQH2FSB1GOOQ_em7-30" value="" style="edgeStyle=none;html=1;" edge="1" parent="1" source="TAY_zQH2FSB1GOOQ_em7-26" target="TAY_zQH2FSB1GOOQ_em7-29">
                    <mxGeometry relative="1" as="geometry"/>
                </mxCell>
                <mxCell id="TAY_zQH2FSB1GOOQ_em7-31" value="" style="rounded=1;whiteSpace=wrap;html=1;glass=0;labelBackgroundColor=none;fillColor=#dae8fc;arcSize=50;strokeColor=#6c8ebf;" vertex="1" parent="1">
                    <mxGeometry x="1131.25" y="560" width="107.5" height="37.5" as="geometry"/>
                </mxCell>
                <mxCell id="Gzfxiz6AmUhDyAS894MD-2" value="foodIDASC(menuArray)" style="rounded=1;whiteSpace=wrap;html=1;glass=0;labelBackgroundColor=none;fillColor=#dae8fc;arcSize=50;strokeColor=#6c8ebf;" parent="1" vertex="1">
                    <mxGeometry x="250" y="70" width="140" height="37.5" as="geometry"/>
                </mxCell>
                <mxCell id="TAY_zQH2FSB1GOOQ_em7-72" style="edgeStyle=none;rounded=0;html=1;exitX=1;exitY=0.5;exitDx=0;exitDy=0;entryX=0.5;entryY=0;entryDx=0;entryDy=0;" edge="1" parent="1" source="Gzfxiz6AmUhDyAS894MD-4" target="TAY_zQH2FSB1GOOQ_em7-68">
                    <mxGeometry relative="1" as="geometry">
                        <Array as="points">
                            <mxPoint x="528" y="228"/>
                        </Array>
                    </mxGeometry>
                </mxCell>
                <mxCell id="Gzfxiz6AmUhDyAS894MD-4" value="(last &amp;gt;= 1)" style="rhombus;whiteSpace=wrap;html=1;" parent="1" vertex="1">
                    <mxGeometry x="279" y="198" width="80" height="60" as="geometry"/>
                </mxCell>
                <mxCell id="Gzfxiz6AmUhDyAS894MD-5" value="" style="edgeStyle=none;html=1;" parent="1" source="Gzfxiz6AmUhDyAS894MD-6" target="Gzfxiz6AmUhDyAS894MD-4" edge="1">
                    <mxGeometry relative="1" as="geometry"/>
                </mxCell>
                <mxCell id="Gzfxiz6AmUhDyAS894MD-6" value="last &lt;br&gt;= SIZE-1" style="whiteSpace=wrap;html=1;" parent="1" vertex="1">
                    <mxGeometry x="284.25" y="130" width="70" height="30" as="geometry"/>
                </mxCell>
                <mxCell id="Gzfxiz6AmUhDyAS894MD-1" value="" style="edgeStyle=none;html=1;entryX=0.5;entryY=0;entryDx=0;entryDy=0;" parent="1" source="Gzfxiz6AmUhDyAS894MD-2" target="Gzfxiz6AmUhDyAS894MD-6" edge="1">
                    <mxGeometry relative="1" as="geometry"/>
                </mxCell>
                <mxCell id="Gzfxiz6AmUhDyAS894MD-7" style="edgeStyle=none;rounded=0;html=1;exitX=0.5;exitY=0;exitDx=0;exitDy=0;" parent="1" source="Gzfxiz6AmUhDyAS894MD-8" edge="1">
                    <mxGeometry relative="1" as="geometry">
                        <Array as="points">
                            <mxPoint x="126" y="180"/>
                        </Array>
                        <mxPoint x="319" y="180" as="targetPoint"/>
                    </mxGeometry>
                </mxCell>
                <mxCell id="Gzfxiz6AmUhDyAS894MD-8" value="--last" style="whiteSpace=wrap;html=1;" parent="1" vertex="1">
                    <mxGeometry x="101" y="237" width="50" height="30" as="geometry"/>
                </mxCell>
                <mxCell id="Gzfxiz6AmUhDyAS894MD-10" value="fI[last]&amp;nbsp; = menuArray[last].getfoodId()&lt;br&gt;largestIndex = 0" style="whiteSpace=wrap;html=1;align=left;" parent="1" vertex="1">
                    <mxGeometry x="244.25" y="280" width="150" height="60" as="geometry"/>
                </mxCell>
                <mxCell id="Gzfxiz6AmUhDyAS894MD-3" value="" style="edgeStyle=none;rounded=0;html=1;" parent="1" source="Gzfxiz6AmUhDyAS894MD-4" target="Gzfxiz6AmUhDyAS894MD-10" edge="1">
                    <mxGeometry relative="1" as="geometry"/>
                </mxCell>
                <mxCell id="TAY_zQH2FSB1GOOQ_em7-50" style="edgeStyle=none;html=1;exitX=0;exitY=0.5;exitDx=0;exitDy=0;entryX=0.5;entryY=1;entryDx=0;entryDy=0;rounded=0;" edge="1" parent="1" source="Gzfxiz6AmUhDyAS894MD-12" target="Gzfxiz6AmUhDyAS894MD-24">
                    <mxGeometry relative="1" as="geometry">
                        <Array as="points">
                            <mxPoint x="126" y="558"/>
                        </Array>
                    </mxGeometry>
                </mxCell>
                <mxCell id="Gzfxiz6AmUhDyAS894MD-12" value="(p &amp;lt;= last)" style="rhombus;whiteSpace=wrap;html=1;" parent="1" vertex="1">
                    <mxGeometry x="279.25" y="528" width="80" height="60" as="geometry"/>
                </mxCell>
                <mxCell id="Gzfxiz6AmUhDyAS894MD-13" value="" style="edgeStyle=none;rounded=0;html=1;" parent="1" source="Gzfxiz6AmUhDyAS894MD-14" target="Gzfxiz6AmUhDyAS894MD-12" edge="1">
                    <mxGeometry relative="1" as="geometry"/>
                </mxCell>
                <mxCell id="Gzfxiz6AmUhDyAS894MD-14" value="p = 1" style="whiteSpace=wrap;html=1;" parent="1" vertex="1">
                    <mxGeometry x="284.25" y="370" width="70" height="30" as="geometry"/>
                </mxCell>
                <mxCell id="Gzfxiz6AmUhDyAS894MD-9" value="" style="edgeStyle=none;rounded=0;html=1;" parent="1" source="Gzfxiz6AmUhDyAS894MD-10" target="Gzfxiz6AmUhDyAS894MD-14" edge="1">
                    <mxGeometry relative="1" as="geometry"/>
                </mxCell>
                <mxCell id="TAY_zQH2FSB1GOOQ_em7-49" style="edgeStyle=none;html=1;exitX=1;exitY=0.5;exitDx=0;exitDy=0;" edge="1" parent="1">
                    <mxGeometry relative="1" as="geometry">
                        <mxPoint x="488" y="672.6363636363635" as="targetPoint"/>
                        <mxPoint x="435.5" y="673" as="sourcePoint"/>
                    </mxGeometry>
                </mxCell>
                <mxCell id="Gzfxiz6AmUhDyAS894MD-18" value="(menuArray[p].getFoodId() &amp;gt;&lt;br&gt;(menuArray[largestIndex].getFoodId()" style="rhombus;whiteSpace=wrap;html=1;" parent="1" vertex="1">
                    <mxGeometry x="195.5" y="608" width="245" height="130" as="geometry"/>
                </mxCell>
                <mxCell id="Gzfxiz6AmUhDyAS894MD-11" value="" style="edgeStyle=none;rounded=0;html=1;" parent="1" source="Gzfxiz6AmUhDyAS894MD-12" target="Gzfxiz6AmUhDyAS894MD-18" edge="1">
                    <mxGeometry relative="1" as="geometry"/>
                </mxCell>
                <mxCell id="Gzfxiz6AmUhDyAS894MD-19" style="edgeStyle=none;rounded=0;html=1;exitX=0.5;exitY=1;exitDx=0;exitDy=0;" parent="1" target="Gzfxiz6AmUhDyAS894MD-22" edge="1">
                    <mxGeometry relative="1" as="geometry">
                        <mxPoint x="319.25" y="797" as="sourcePoint"/>
                        <mxPoint x="513" y="687" as="targetPoint"/>
                        <Array as="points">
                            <mxPoint x="319" y="807"/>
                            <mxPoint x="413" y="807"/>
                            <mxPoint x="487" y="807"/>
                        </Array>
                    </mxGeometry>
                </mxCell>
                <mxCell id="Gzfxiz6AmUhDyAS894MD-20" value="largestIndex = p" style="whiteSpace=wrap;html=1;" parent="1" vertex="1">
                    <mxGeometry x="269.25" y="768" width="100" height="30" as="geometry"/>
                </mxCell>
                <mxCell id="Gzfxiz6AmUhDyAS894MD-15" value="" style="edgeStyle=none;rounded=0;html=1;" parent="1" source="Gzfxiz6AmUhDyAS894MD-18" target="Gzfxiz6AmUhDyAS894MD-20" edge="1">
                    <mxGeometry relative="1" as="geometry"/>
                </mxCell>
                <mxCell id="Gzfxiz6AmUhDyAS894MD-21" style="edgeStyle=none;rounded=0;html=1;" parent="1" source="Gzfxiz6AmUhDyAS894MD-22" edge="1">
                    <mxGeometry relative="1" as="geometry">
                        <Array as="points">
                            <mxPoint x="487" y="490"/>
                        </Array>
                        <mxPoint x="493" y="593" as="sourcePoint"/>
                        <mxPoint x="319" y="490" as="targetPoint"/>
                    </mxGeometry>
                </mxCell>
                <mxCell id="Gzfxiz6AmUhDyAS894MD-22" value="++p" style="whiteSpace=wrap;html=1;" parent="1" vertex="1">
                    <mxGeometry x="462" y="592" width="50" height="30" as="geometry"/>
                </mxCell>
                <mxCell id="Gzfxiz6AmUhDyAS894MD-23" style="edgeStyle=none;rounded=0;html=1;exitX=0.5;exitY=0;exitDx=0;exitDy=0;entryX=0.5;entryY=1;entryDx=0;entryDy=0;" parent="1" source="Gzfxiz6AmUhDyAS894MD-24" target="Gzfxiz6AmUhDyAS894MD-8" edge="1">
                    <mxGeometry relative="1" as="geometry"/>
                </mxCell>
                <mxCell id="Gzfxiz6AmUhDyAS894MD-24" value="swap(menuArray[largestIndex], menuArray[last])" style="shape=process;whiteSpace=wrap;html=1;backgroundOutline=1;" parent="1" vertex="1">
                    <mxGeometry x="21" y="420" width="210" height="60" as="geometry"/>
                </mxCell>
                <mxCell id="TAY_zQH2FSB1GOOQ_em7-32" value="" style="edgeStyle=none;html=1;" edge="1" parent="1" source="TAY_zQH2FSB1GOOQ_em7-33" target="TAY_zQH2FSB1GOOQ_em7-38">
                    <mxGeometry relative="1" as="geometry"/>
                </mxCell>
                <mxCell id="TAY_zQH2FSB1GOOQ_em7-33" value="FoodIDASC(menuArray)" style="rounded=1;whiteSpace=wrap;html=1;glass=0;labelBackgroundColor=none;fillColor=#dae8fc;arcSize=50;strokeColor=#6c8ebf;" vertex="1" parent="1">
                    <mxGeometry x="710" y="650" width="170" height="37.5" as="geometry"/>
                </mxCell>
                <mxCell id="TAY_zQH2FSB1GOOQ_em7-34" value="" style="edgeStyle=none;html=1;entryX=0;entryY=0.5;entryDx=0;entryDy=0;" edge="1" parent="1" source="TAY_zQH2FSB1GOOQ_em7-36" target="TAY_zQH2FSB1GOOQ_em7-40">
                    <mxGeometry relative="1" as="geometry"/>
                </mxCell>
                <mxCell id="TAY_zQH2FSB1GOOQ_em7-35" value="" style="edgeStyle=none;html=1;" edge="1" parent="1" source="TAY_zQH2FSB1GOOQ_em7-36" target="TAY_zQH2FSB1GOOQ_em7-45">
                    <mxGeometry relative="1" as="geometry"/>
                </mxCell>
                <mxCell id="TAY_zQH2FSB1GOOQ_em7-36" value="(i &amp;lt; SIZE)" style="rhombus;whiteSpace=wrap;html=1;" vertex="1" parent="1">
                    <mxGeometry x="755" y="812" width="80" height="70" as="geometry"/>
                </mxCell>
                <mxCell id="TAY_zQH2FSB1GOOQ_em7-37" value="" style="edgeStyle=none;html=1;" edge="1" parent="1" source="TAY_zQH2FSB1GOOQ_em7-38" target="TAY_zQH2FSB1GOOQ_em7-36">
                    <mxGeometry relative="1" as="geometry"/>
                </mxCell>
                <mxCell id="TAY_zQH2FSB1GOOQ_em7-38" value="i = 0" style="whiteSpace=wrap;html=1;" vertex="1" parent="1">
                    <mxGeometry x="765" y="720" width="60" height="30" as="geometry"/>
                </mxCell>
                <mxCell id="TAY_zQH2FSB1GOOQ_em7-39" value="" style="group" vertex="1" connectable="0" parent="1">
                    <mxGeometry x="855" y="792" width="210" height="100" as="geometry"/>
                </mxCell>
                <mxCell id="TAY_zQH2FSB1GOOQ_em7-40" value="(i+2)&lt;br&gt;menuArray[i].getFoodId()&lt;br&gt;menuArray[i].getName()&lt;br&gt;menuArray[i].getCategory()&lt;br&gt;menuArray[i].getPrice()&lt;br&gt;" style="shape=parallelogram;perimeter=parallelogramPerimeter;whiteSpace=wrap;html=1;fixedSize=1;fillColor=#dae8fc;strokeColor=#6c8ebf;" vertex="1" parent="TAY_zQH2FSB1GOOQ_em7-39">
                    <mxGeometry y="8" width="210" height="92" as="geometry"/>
                </mxCell>
                <mxCell id="TAY_zQH2FSB1GOOQ_em7-41" value="Ouput" style="text;html=1;align=center;verticalAlign=middle;resizable=0;points=[];autosize=1;strokeColor=none;fillColor=none;" vertex="1" parent="TAY_zQH2FSB1GOOQ_em7-39">
                    <mxGeometry x="10" width="60" height="30" as="geometry"/>
                </mxCell>
                <mxCell id="TAY_zQH2FSB1GOOQ_em7-42" style="edgeStyle=none;html=1;" edge="1" parent="1" source="TAY_zQH2FSB1GOOQ_em7-43">
                    <mxGeometry relative="1" as="geometry">
                        <mxPoint x="796.0000000000005" y="765" as="targetPoint"/>
                        <mxPoint x="951" y="765" as="sourcePoint"/>
                    </mxGeometry>
                </mxCell>
                <mxCell id="TAY_zQH2FSB1GOOQ_em7-43" value="i++" style="whiteSpace=wrap;html=1;" vertex="1" parent="1">
                    <mxGeometry x="930" y="750" width="60" height="30" as="geometry"/>
                </mxCell>
                <mxCell id="TAY_zQH2FSB1GOOQ_em7-44" value="" style="edgeStyle=none;html=1;" edge="1" parent="1" source="TAY_zQH2FSB1GOOQ_em7-40" target="TAY_zQH2FSB1GOOQ_em7-43">
                    <mxGeometry relative="1" as="geometry"/>
                </mxCell>
                <mxCell id="TAY_zQH2FSB1GOOQ_em7-45" value="" style="rounded=1;whiteSpace=wrap;html=1;glass=0;labelBackgroundColor=none;fillColor=#dae8fc;arcSize=50;strokeColor=#6c8ebf;" vertex="1" parent="1">
                    <mxGeometry x="741.25" y="920" width="107.5" height="37.5" as="geometry"/>
                </mxCell>
                <mxCell id="TAY_zQH2FSB1GOOQ_em7-46" value="TRUE" style="text;html=1;align=center;verticalAlign=middle;resizable=0;points=[];autosize=1;strokeColor=none;fillColor=none;" vertex="1" parent="1">
                    <mxGeometry x="314.25" y="738" width="60" height="30" as="geometry"/>
                </mxCell>
                <mxCell id="TAY_zQH2FSB1GOOQ_em7-47" value="FALSE" style="text;html=1;align=center;verticalAlign=middle;resizable=0;points=[];autosize=1;strokeColor=none;fillColor=none;" vertex="1" parent="1">
                    <mxGeometry x="423" y="640" width="60" height="30" as="geometry"/>
                </mxCell>
                <mxCell id="TAY_zQH2FSB1GOOQ_em7-51" value="TRUE" style="text;html=1;align=center;verticalAlign=middle;resizable=0;points=[];autosize=1;strokeColor=none;fillColor=none;" vertex="1" parent="1">
                    <mxGeometry x="314.25" y="588" width="60" height="30" as="geometry"/>
                </mxCell>
                <mxCell id="TAY_zQH2FSB1GOOQ_em7-66" value="FALSE" style="text;html=1;align=center;verticalAlign=middle;resizable=0;points=[];autosize=1;strokeColor=none;fillColor=none;" vertex="1" parent="1">
                    <mxGeometry x="219" y="528" width="60" height="30" as="geometry"/>
                </mxCell>
                <mxCell id="TAY_zQH2FSB1GOOQ_em7-67" value="TRUE" style="text;html=1;align=center;verticalAlign=middle;resizable=0;points=[];autosize=1;strokeColor=none;fillColor=none;" vertex="1" parent="1">
                    <mxGeometry x="314.25" y="250" width="60" height="30" as="geometry"/>
                </mxCell>
                <mxCell id="TAY_zQH2FSB1GOOQ_em7-75" style="edgeStyle=none;rounded=0;html=1;" edge="1" parent="1" source="TAY_zQH2FSB1GOOQ_em7-68" target="TAY_zQH2FSB1GOOQ_em7-70">
                    <mxGeometry relative="1" as="geometry"/>
                </mxCell>
                <mxCell id="TAY_zQH2FSB1GOOQ_em7-68" value="displayHeader()" style="shape=process;whiteSpace=wrap;html=1;backgroundOutline=1;" vertex="1" parent="1">
                    <mxGeometry x="468.5" y="247.5" width="120" height="40" as="geometry"/>
                </mxCell>
                <mxCell id="TAY_zQH2FSB1GOOQ_em7-76" value="" style="edgeStyle=none;rounded=0;html=1;" edge="1" parent="1" source="TAY_zQH2FSB1GOOQ_em7-70" target="TAY_zQH2FSB1GOOQ_em7-71">
                    <mxGeometry relative="1" as="geometry"/>
                </mxCell>
                <mxCell id="TAY_zQH2FSB1GOOQ_em7-70" value="printSortedResult(menuArray)" style="shape=process;whiteSpace=wrap;html=1;backgroundOutline=1;size=0.07729468599033816;" vertex="1" parent="1">
                    <mxGeometry x="434" y="310" width="191" height="40" as="geometry"/>
                </mxCell>
                <mxCell id="TAY_zQH2FSB1GOOQ_em7-71" value="" style="rounded=1;whiteSpace=wrap;html=1;glass=0;labelBackgroundColor=none;fillColor=#dae8fc;arcSize=50;strokeColor=#6c8ebf;" vertex="1" parent="1">
                    <mxGeometry x="474.75" y="370" width="107.5" height="37.5" as="geometry"/>
                </mxCell>
                <mxCell id="TAY_zQH2FSB1GOOQ_em7-73" value="FALSE" style="text;html=1;align=center;verticalAlign=middle;resizable=0;points=[];autosize=1;strokeColor=none;fillColor=none;" vertex="1" parent="1">
                    <mxGeometry x="359" y="198" width="60" height="30" as="geometry"/>
                </mxCell>
            </root>
        </mxGraphModel>
    </diagram>
    <diagram id="zfJWlOLrYNVGcicZvGA9" name="SEARCHING FUNCTION">
        <mxGraphModel dx="577" dy="419" grid="1" gridSize="10" guides="1" tooltips="1" connect="1" arrows="1" fold="1" page="1" pageScale="1" pageWidth="850" pageHeight="1100" math="0" shadow="0">
            <root>
                <mxCell id="0"/>
                <mxCell id="1" parent="0"/>
            </root>
        </mxGraphModel>
    </diagram>
</mxfile>